# xmcd
#
# Track frame offsets: 
#        183
#        21523
#        50453
#        75585
#        90230
#        118438
#        138285
#        165468
#
# Disc length: 2454 seconds
#
# Revision: 4
# Processed by: cddbd v1.5.2PL0 Copyright (c) Steve Scherf et al.
# Submitted via: ExactAudioCopy v0.99pb3
#
DISCID=5f099408
DTITLE=Lionel Richie - Can't Slow Down
DYEAR=1983
DGENRE=Soul
TTITLE0=Can't Slow Down
TTITLE1=All Night Long (All Night)
TTITLE2=Penny Lover
TTITLE3=Stuck On You
TTITLE4=Love Will Find A Way
TTITLE5=The Only One
TTITLE6=Running With The Night
TTITLE7=Hello
EXTD=Label: MotownMCD06059MD
EXTT0=
EXTT1=
EXTT2=
EXTT3=
EXTT4=
EXTT5=
EXTT6=
EXTT7=
PLAYORDER=
